<svg xmlns="http://www.w3.org/2000/svg" width="1200" height="400" viewBox="0 0 1200 400" fill="none">
  <!-- Background with dark theme color -->
  <rect width="1200" height="400" fill="#121212"/>
  
  <!-- Gradient overlay for visual depth -->
  <rect width="1200" height="400" fill="url(#backgroundGradient)"/>
  
  <!-- Discgolf basket -->
  <g transform="translate(750, 200) scale(0.8)">
    <!-- Basket base -->
    <rect x="-50" y="100" width="100" height="20" rx="5" fill="#444444"/>
    
    <!-- Basket pole -->
    <rect x="-5" y="0" width="10" height="100" fill="#555555"/>
    
    <!-- Basket rim -->
    <ellipse cx="0" cy="0" rx="60" ry="15" fill="#666666"/>
    
    <!-- Basket chains -->
    <path d="M-55 0 C-45 50, 45 50, 55 0" stroke="#888888" stroke-width="2" fill="none"/>
    <path d="M-50 0 C-40 45, 40 45, 50 0" stroke="#888888" stroke-width="2" fill="none"/>
    <path d="M-45 0 C-35 40, 35 40, 45 0" stroke="#888888" stroke-width="2" fill="none"/>
    <path d="M-40 0 C-30 35, 30 35, 40 0" stroke="#888888" stroke-width="2" fill="none"/>
    <path d="M-35 0 C-25 30, 25 30, 35 0" stroke="#888888" stroke-width="2" fill="none"/>
    <path d="M-30 0 C-20 25, 20 25, 30 0" stroke="#888888" stroke-width="2" fill="none"/>
    <path d="M-25 0 C-15 20, 15 20, 25 0" stroke="#888888" stroke-width="2" fill="none"/>
    
    <!-- Basket bottom -->
    <ellipse cx="0" cy="0" rx="50" ry="12" fill="#333333"/>
  </g>
  
  <!-- Discgolf disc -->
  <g transform="translate(350, 200) rotate(-15)">
    <!-- Outer disc -->
    <circle cx="0" cy="0" r="80" fill="url(#discGradient)"/>
    
    <!-- Inner disc details -->
    <circle cx="0" cy="0" r="25" fill="#1e1e1e"/>
    <circle cx="0" cy="0" r="20" fill="#4CAF50"/>
  </g>
  
  <!-- Flight path of disc -->
  <path d="M400 180 C500 100, 600 130, 700 180" stroke="#4CAF50" stroke-width="4" stroke-dasharray="10,5" fill="none"/>
  
  <!-- Main title -->
  <text x="600" y="130" font-family="Montserrat, sans-serif" font-weight="700" font-size="60" text-anchor="middle" fill="#FFFFFF">ToggleBoys Ligan</text>
  <text x="600" y="190" font-family="Montserrat, sans-serif" font-weight="700" font-size="50" text-anchor="middle" fill="#4CAF50">2025</text>
  
  <!-- Subtitle -->
  <text x="600" y="250" font-family="Open Sans, sans-serif" font-size="24" font-weight="400" text-anchor="middle" fill="#e0e0e0">Discgolf League Tracking System</text>
  
  <!-- Decorative elements -->
  <circle cx="150" cy="300" r="40" fill="#1e1e1e" opacity="0.5"/>
  <circle cx="220" cy="340" r="25" fill="#388E3C" opacity="0.3"/>
  <circle cx="1050" cy="100" r="30" fill="#1e1e1e" opacity="0.5"/>
  <circle cx="980" cy="60" r="20" fill="#388E3C" opacity="0.3"/>
  
  <!-- Definitions for gradients -->
  <defs>
    <linearGradient id="backgroundGradient" x1="0" y1="0" x2="0" y2="400" gradientUnits="userSpaceOnUse">
      <stop offset="0" stop-color="#388E3C" stop-opacity="0.1"/>
      <stop offset="1" stop-color="#000000" stop-opacity="0.7"/>
    </linearGradient>
    
    <radialGradient id="discGradient" cx="0" cy="0" r="80" gradientUnits="userSpaceOnUse">
      <stop offset="0" stop-color="#4CAF50"/>
      <stop offset="1" stop-color="#388E3C"/>
    </radialGradient>
  </defs>
</svg>